<svg xmlns="http://www.w3.org/2000/svg">
  <symbol id="clouds" viewBox="0 0 872 564">
    <g fill-rule="evenodd" fill-opacity="0.3">
        <path d="M436.767775,530.658547 C398.914063,551.534202 351.04882,564 299,564 C176.392786,564 77,494.827994 77,409.5 C77,404.632793 77.3233936,399.818153 77.9560425,395.065919 C30.2485367,366.727983 0,324.572394 0,277.5 C0,206.091668 69.6096685,145.998171 164.180836,128.292222 C182.066005,55.4464627 273.228964,0 383,0 C468.966887,0 543.521075,34.0064046 580.403628,83.7444139 C602.29401,78.7192095 625.690716,76 650,76 C772.607214,76 872,145.172006 872,230.5 C872,267.514396 853.29692,301.488665 822.109022,328.095232 C825.313553,338.544591 827,349.385232 827,360.5 C827,440.928542 738.6936,507.003153 625.875938,514.325867 C602.383915,537.135406 563.939734,552 520.5,552 C488.573123,552 459.344744,543.970442 436.767793,530.658537 Z" fill="#fff"></path>
    </g>
  </symbol>
  <symbol id="rain" viewBox="0 0 506 474">
      <g fill="red" fill-rule="evenodd" fill-opacity="0.3">
          <path d="M438.953,123.352 C477.252,132.465 505.738,166.895 505.738,207.983 C505.738,256.03 466.787,294.979 418.74,294.979 C404.807,294.979 391.639,291.697 379.963,285.873 C365.791,311.58 338.438,329 307.008,329 C283.996,329 263.166,319.663 248.095,304.572 C227.991,325.392 199.791,338.344 168.562,338.344 C132.222,338.344 99.979,320.809 79.828,293.74 C75.678,294.547 71.395,294.983 67.009,294.983 C30.145,294.983 0.262,265.101 0.262,228.237 C0.262,191.373 30.146,161.49 67.009,161.49 C67.319,161.49 67.624,161.509 67.933,161.513 C73.091,120.07 108.415,87.99 151.255,87.99 C161.725,87.99 171.74,89.921 180.984,93.421 C197.482,39.338 247.767,-0.008 307.248,-0.008 C377.244,-0.008 434.506,54.48 438.953,123.352 Z M348.512,411.684 C355.323,386.044 366.852,361.913 378.813,338.343 C390.772,361.913 402.303,386.054 409.112,411.684 C413.794,429.494 408.342,451.154 392.624,461.864 C383.034,468.494 369.343,466.843 361.073,458.824 C348.432,447.184 344.213,428.023 348.512,411.684 Z M209.02,419.715 C215.83,394.075 227.36,369.944 239.32,346.374 C251.28,369.944 262.809,394.085 269.62,419.715 C274.3,437.525 268.849,459.185 253.131,469.895 C243.541,476.525 229.85,474.874 221.58,466.855 C208.939,455.215 204.72,436.055 209.02,419.715 Z M60.527,411.684 C67.337,386.044 78.867,361.913 90.827,338.343 C102.787,361.913 114.317,386.054 121.127,411.684 C125.808,429.494 120.356,451.154 104.638,461.864 C95.048,468.494 81.357,466.843 73.087,458.824 C60.447,447.184 56.228,428.023 60.527,411.684 Z" id="Combined-Shape" fill="#0F3E87" fill-rule="nonzero"></path>
      </g>
  </symbol>
</svg>
